# xmcd
#
# Track frame offsets:
#	150
#	9625
#	18685
#	36720
#	52842
#	74622
#	91640
#	114055
#	131465
#	151167
#	167982
#	200585
#	225470
#	237037
#	251042
#	264275
#	281667
#	301942
#
# Disc length: 4243 seconds
#
# Revision: 4
# Processed by: cddbd v1.5.1PL0 Copyright (c) Steve Scherf et al.
# Submitted via: audiograbber 1.83.01
#
DISCID=ea109112
DTITLE=The Blues Band - live
DYEAR=1992
DGENRE=Blues
TTITLE0=Come On In
TTITLE1=Hey Hey Little Girl
TTITLE2=Death Letter
TTITLE3=Grits Ain't Groceries
TTITLE4=Flatfoot Sam
TTITLE5=Don't Lie To Me
TTITLE6=Can't Hold On Much Longer
TTITLE7=It Might As Well Be Me
TTITLE8=Nadine
TTITLE9=Big Boss Man
TTITLE10=Maggie's Farm
TTITLE11=Treat Her Right
TTITLE12=Find Yourself Another Fool
TTITLE13=Big Fine Girl
TTITLE14=Someday Baby
TTITLE15=Rolling Log
TTITLE16=Greenstuff
TTITLE17=Boom Boom (Out Go The Lights)
EXTD=Compilation
EXTT0=
EXTT1=
EXTT2=
EXTT3=
EXTT4=
EXTT5=
EXTT6=
EXTT7=
EXTT8=
EXTT9=
EXTT10=
EXTT11=
EXTT12=
EXTT13=
EXTT14=
EXTT15=
EXTT16=
EXTT17=
PLAYORDER=
